<svg width="54" height="83" viewBox="0 0 54 83" fill="none" xmlns="http://www.w3.org/2000/svg">
<rect width="54" height="83" rx="3" fill="white"/>
<path d="M24.1886 48.68C24.3086 48.88 24.5886 49 25.0286 49C26.0286 49 26.3086 48.96 26.4686 48.16L26.9086 45.88C27.1086 44.96 28.2686 44.56 29.1886 44.04C32.7086 42.08 34.3486 39.16 34.3486 35.68C34.3486 33.8 33.5886 32.2 32.0686 30.96C30.5486 29.68 28.7086 29.04 26.5886 29.04C24.5486 29.04 23.1886 29.28 22.5486 29.72C22.2286 29.96 22.1086 30.36 22.1086 30.92C22.1086 31.2 22.1086 31.48 22.1886 31.8C22.3086 32.52 22.5886 32.88 23.0286 32.88C22.9886 32.88 23.3086 32.84 24.0686 32.72C24.8286 32.6 25.5086 32.56 26.1086 32.56C29.7486 32.56 31.5886 33.84 31.5886 36.44C31.5886 37.92 31.0286 39.08 29.9486 39.96C29.1886 40.56 27.7486 41.28 25.6286 42.04C24.5486 42.44 23.9086 43.04 23.7086 43.84C23.6686 43.96 23.6686 44.16 23.6686 44.4C23.6686 45.08 23.7886 46.24 23.9886 47.88C24.0286 48.32 24.1086 48.56 24.1886 48.68ZM23.1486 53.16C23.1486 54.44 24.1486 55.48 25.3886 55.48C26.7886 55.48 27.8286 54.56 27.8286 53C27.8286 51.72 26.7886 50.68 25.4686 50.68C24.1886 50.68 23.1486 51.76 23.1486 53.16Z" fill="black"/>
</svg>
