<svg width="258" height="188" viewBox="0 0 258 188" fill="none" xmlns="http://www.w3.org/2000/svg">
<path fill-rule="evenodd" clip-rule="evenodd" d="M151.596 86.0876C159.015 81.8565 160.468 73.4921 160.468 64.5416C160.468 63.637 160.477 62.6655 160.486 61.6437C160.563 53.1752 160.672 41.2542 156.037 35.3559C151.301 29.3281 142.801 28.4865 135.139 28.4865C133.121 28.4865 130.506 28.2643 127.614 28.0186C118.982 27.2853 107.885 26.3427 102.857 30.4725C96.8727 35.3882 97.0342 48.7863 97.1369 57.3103C97.1492 58.3294 97.1606 59.2787 97.1606 60.1356C97.1606 68.4104 97.3109 78.8922 102.857 84.1887C108.079 89.1746 119.735 89.611 127.524 89.611C134.638 89.611 145.699 89.4505 151.596 86.0876ZM122.584 64.3596C122.503 64.279 122.483 64.1984 122.483 64.0977C122.483 63.6747 122.926 62.9495 123.792 61.8818L127.136 57.7923C129.252 55.2138 130.299 53.6827 130.299 53.1993C130.299 52.9978 130.239 52.8971 130.098 52.8971C129.836 52.8971 129.634 52.8971 129.493 52.9172C129.247 52.9377 128.971 52.9466 128.664 52.9565C128.066 52.9758 127.35 52.9989 126.512 53.1187C126.028 53.1993 125.605 53.3 125.323 53.441C124.497 53.8439 124.356 53.9043 124.276 53.9043C124.014 53.9043 123.833 53.8237 123.772 53.6827C123.732 53.582 123.712 53.4208 123.712 53.1791C123.712 52.3129 123.752 51.8294 123.812 51.7287C123.893 51.6279 124.236 51.5876 124.82 51.5876C125.434 51.5876 126.144 51.6078 126.854 51.6279C127.564 51.6481 128.275 51.6682 128.889 51.6682H129.896C131.045 51.6682 132.676 51.6884 133.039 51.8294C133.18 51.8898 133.22 52.1517 133.22 52.5143C133.22 52.8366 133.119 53.159 132.938 53.4813C132.757 53.8036 132.334 54.3475 131.709 55.0929L128.204 59.3435C126.653 61.2371 125.867 62.3652 125.867 62.7279C125.867 63.1106 126.109 63.2919 126.613 63.2919C126.995 63.2919 127.559 63.2919 128.305 63.2718C128.498 63.2665 128.68 63.2613 128.849 63.2564C129.331 63.2425 129.714 63.2315 129.997 63.2315C130.904 63.2315 131.669 62.8689 132.132 62.0832C132.156 62.0361 132.183 61.989 132.21 61.9407C132.253 61.865 132.297 61.7865 132.334 61.7005C132.394 61.5997 132.495 61.5594 132.616 61.5594C132.918 61.5594 133.18 61.5796 133.422 61.8415C133.563 61.9825 133.563 62.4861 133.563 63.2516C133.563 63.8358 133.482 64.1783 133.321 64.3193C133.24 64.3999 133.079 64.3999 132.797 64.3999H132.414C129.83 64.3999 127.914 64.4079 126.493 64.4138C125.654 64.4173 124.988 64.42 124.457 64.42C123.027 64.42 122.624 64.3999 122.584 64.3596Z" fill="white"/>
<path fill-rule="evenodd" clip-rule="evenodd" d="M80.8953 156.789C88.3147 152.558 89.7673 144.193 89.7673 135.243C89.7673 134.338 89.7761 133.367 89.7854 132.345C89.8625 123.876 89.971 111.955 85.3366 106.057C80.6003 100.029 72.1003 99.1876 64.4381 99.1876C62.4205 99.1876 59.8051 98.9655 56.913 98.7198C48.2813 97.9865 37.1847 97.0438 32.1568 101.174C26.1721 106.089 26.3336 119.487 26.4363 128.012C26.4486 129.031 26.46 129.98 26.46 130.837C26.46 139.112 26.6104 149.593 32.1569 154.89C37.3781 159.876 49.034 160.312 56.8235 160.312C63.9374 160.312 74.9984 160.152 80.8953 156.789ZM54.3865 134.596C52.4727 134.596 50.9618 134.032 49.8136 132.904C48.6653 131.756 48.1012 130.204 48.1012 128.25C48.1012 126.256 48.7459 124.604 50.0553 123.295C51.3647 121.985 53.0166 121.32 55.011 121.32C56.9248 121.32 58.4558 121.905 59.6443 123.053C60.8329 124.201 61.4171 125.712 61.4171 127.586C61.4171 129.701 60.712 131.252 59.5033 132.461C59.1206 132.843 58.899 133.085 58.899 133.226C58.899 133.609 59.8055 134.274 61.6387 135.261C63.21 136.107 64.4187 136.671 65.2849 136.953C66.9167 137.497 68.4074 137.759 69.7773 137.759C71.2076 137.759 72.4163 137.537 73.4034 137.094C73.6451 136.993 73.8264 136.933 73.9272 136.933C74.2092 136.933 74.3502 137.134 74.3502 137.557C74.3502 137.779 74.0077 138.061 73.3027 138.403C71.7314 139.169 70.3816 139.552 69.2737 139.552C67.7023 139.552 66.0907 139.209 64.4187 138.504C63.633 138.182 62.1423 137.416 59.9465 136.188C58.6371 135.462 57.791 134.999 57.3881 134.818C56.9852 134.636 56.6427 134.536 56.3808 134.536C56.0845 134.536 55.7926 134.549 55.486 134.564C55.1464 134.579 54.7887 134.596 54.3865 134.596ZM50.0754 127.606C50.0754 129.237 50.5186 130.547 51.4252 131.554C52.3317 132.541 53.5807 133.045 55.1318 133.045C56.4614 133.045 57.5291 132.582 58.355 131.655C59.1206 130.768 59.5033 129.64 59.5033 128.291C59.5033 126.739 59.0198 125.45 58.0327 124.423C57.0456 123.375 55.8369 122.851 54.3663 122.851C51.687 122.851 50.0754 124.624 50.0754 127.606Z" fill="white"/>
<path fill-rule="evenodd" clip-rule="evenodd" d="M156.402 106.406C152.17 98.987 143.806 97.5345 134.856 97.5345C133.951 97.5345 132.979 97.5256 131.958 97.5163C123.489 97.4392 111.568 97.3307 105.67 101.965C99.6421 106.701 98.8004 115.201 98.8004 122.864C98.8004 124.881 98.5782 127.497 98.3326 130.389C97.5993 139.02 96.6566 150.117 100.786 155.145C105.702 161.13 119.1 160.968 127.624 160.865C128.643 160.853 129.593 160.842 130.45 160.842C138.724 160.842 149.206 160.691 154.503 155.145C159.489 149.924 159.925 138.268 159.925 130.478C159.925 123.364 159.764 112.303 156.402 106.406ZM128.423 136.146C127.395 136.146 126.69 135.844 126.307 135.239C125.824 134.494 125.582 133.789 125.582 133.164C125.582 132.741 125.763 132.54 126.146 132.54C126.537 132.54 126.663 132.73 126.706 132.796C126.708 132.798 126.709 132.8 126.71 132.802L127.456 133.749C127.879 134.272 128.503 134.534 129.289 134.534C130.497 134.534 131.464 133.628 131.464 132.52C131.464 131.573 130.921 130.989 129.087 129.941C128.543 129.619 127.979 129.236 127.415 128.813C126.569 128.148 126.146 127.423 126.146 126.597C126.146 125.912 126.368 125.247 126.811 124.583C127.274 123.918 127.798 123.455 128.423 123.213C129.007 122.991 129.712 122.87 130.538 122.87C131.827 122.87 132.834 123.334 132.955 123.978L133.136 124.945C133.157 125.086 133.177 125.227 133.177 125.368C133.177 125.691 132.975 125.852 132.572 125.852C132.431 125.852 132.27 125.711 132.049 125.449C131.424 124.704 130.699 124.321 129.833 124.321C128.846 124.321 128.1 125.026 128.1 125.973C128.1 126.678 128.564 127.282 129.49 127.826C130.9 128.652 131.887 129.276 132.431 129.7C133.056 130.183 133.358 130.868 133.358 131.754C133.358 132.58 133.076 133.386 132.532 134.172C131.585 135.481 130.215 136.146 128.423 136.146Z" fill="white"/>
<path fill-rule="evenodd" clip-rule="evenodd" d="M177.301 101.6C169.881 105.831 168.429 114.195 168.429 123.146C168.429 124.05 168.42 125.022 168.411 126.044C168.334 134.512 168.225 146.433 172.86 152.331C177.596 158.359 186.096 159.201 193.758 159.201C195.776 159.201 198.391 159.423 201.283 159.669C209.915 160.402 221.011 161.345 226.039 157.215C232.024 152.299 231.863 138.901 231.76 130.377C231.748 129.358 231.736 128.408 231.736 127.552C231.736 119.277 231.586 108.795 226.039 103.499C220.818 98.5126 209.162 98.0762 201.373 98.0762C194.259 98.0762 183.198 98.2367 177.301 101.6ZM196.826 135.723C195.597 135.662 195.315 135.562 195.315 135.159C195.315 134.937 195.355 134.796 195.416 134.736C195.436 134.715 195.557 134.635 195.778 134.534C196.242 134.313 196.544 133.426 196.645 131.915C196.665 131.694 196.665 130.707 196.665 128.954C196.665 125.092 196.391 124.68 196.247 124.464C196.196 124.386 196.161 124.334 196.161 124.159C196.161 124.059 196.161 123.918 196.201 123.716C196.262 123.293 196.443 123.172 197.088 123.112L200.069 122.89C200.25 122.87 200.573 122.87 201.056 122.87C205.267 122.87 207.765 125.006 207.765 128.652C207.765 130.747 207.1 132.479 205.75 133.829C204.4 135.179 202.567 135.864 200.351 135.864C199.753 135.864 199.101 135.832 198.113 135.784C197.737 135.766 197.314 135.745 196.826 135.723ZM198.317 129.055C198.317 132.197 198.397 133.003 198.458 133.325C198.518 133.628 198.719 133.89 199.042 134.111C199.545 134.454 200.19 134.615 200.976 134.615C202.406 134.615 203.595 134.111 204.501 133.084C205.428 132.056 205.891 130.727 205.891 129.135C205.891 126.073 203.494 124.079 200.392 124.079C199.505 124.079 198.921 124.22 198.659 124.522C198.437 124.764 198.317 125.831 198.317 129.055Z" fill="white"/>
<path d="M121.708 8.19847C121.708 8.19847 125.582 2 128.681 2C131.781 2 134.88 8.19847 134.88 8.19847" stroke="white" stroke-width="3" stroke-linecap="round" stroke-linejoin="round"/>
<path d="M135.655 180.206C135.655 180.206 131.78 186.404 128.681 186.404C125.582 186.404 122.483 180.206 122.483 180.206" stroke="white" stroke-width="3" stroke-linecap="round" stroke-linejoin="round"/>
<path d="M8.19847 138.366C8.19847 138.366 2 134.492 2 131.393C2 128.294 8.19847 125.194 8.19847 125.194" stroke="white" stroke-width="3" stroke-linecap="round" stroke-linejoin="round"/>
<path d="M249.552 124.42C249.552 124.42 255.75 128.294 255.75 131.393C255.75 134.492 249.552 137.592 249.552 137.592" stroke="white" stroke-width="3" stroke-linecap="round" stroke-linejoin="round"/>
</svg>
