<svg width="68" height="70" viewBox="0 0 68 70" fill="none" xmlns="http://www.w3.org/2000/svg">
<path fill-rule="evenodd" clip-rule="evenodd" d="M64.1794 9.25262C59.7862 1.54906 51.1014 0.0408456 41.8081 0.040846C40.8935 0.0408461 39.8777 0.0321399 38.7841 0.0227665C29.4455 -0.0572703 14.4302 -0.18596 8.28664 4.64126C2.02792 9.55894 1.15403 19.9935 1.15403 27.9492C1.15403 30.0093 0.930948 32.7675 0.680947 35.8586C-0.082041 45.2924 -1.09576 57.8264 3.21614 63.0759C8.32015 69.2898 22.2314 69.1222 31.0819 69.0155C32.14 69.0028 33.1257 68.9909 34.0154 68.9909C42.6072 68.9909 56.7083 68.8348 62.2078 63.0758C67.3846 57.6546 67.8378 43.9433 67.8378 35.8554C67.8378 28.4691 67.6711 15.3754 64.1794 9.25262ZM27.8452 44.0451C26.9972 44.0451 26.5869 43.7989 26.5869 43.3339C26.5869 42.6227 26.669 42.5407 27.3528 42.1304C27.7631 41.8842 28.064 41.5833 28.2281 41.2278C28.4196 40.7901 28.5563 40.1884 28.611 39.4498C28.6657 38.7113 28.6931 37.0428 28.6931 34.499C28.6931 31.3808 28.3922 29.4388 27.7904 28.5909C27.5974 28.3206 27.4657 28.1832 27.376 28.0897C27.2116 27.9181 27.1887 27.8943 27.1887 27.4694C27.1887 26.7965 27.5934 26.7858 29.2026 26.7434C29.5555 26.7341 29.9664 26.7232 30.4436 26.7036C31.401 26.6762 32.413 26.6489 33.343 26.6489C34.097 26.6489 34.7894 26.6591 35.3259 26.6671C35.6653 26.6721 35.9422 26.6762 36.133 26.6762C37.5279 26.6762 37.9656 26.9224 38.1844 27.278C38.3759 27.5788 38.6768 28.755 38.6768 29.3294C38.6768 30.0132 38.4306 30.3414 37.9109 30.3414C37.5279 30.3414 37.3912 30.2047 37.0082 29.8217C36.4065 29.22 35.75 28.6456 34.738 28.3994C34.3003 28.29 33.7806 28.2627 33.1789 28.2627C32.1669 28.2627 31.5651 28.3721 31.2916 28.5088C30.8266 28.755 30.7172 29.4115 30.7172 30.5056C30.7172 31.2679 30.7277 31.7574 30.7356 32.1301C30.7406 32.3592 30.7445 32.5441 30.7445 32.7211C30.7445 33.3229 30.7992 33.6785 30.936 33.8152C31.0454 33.8973 31.2642 33.9793 32.7413 33.9793C33.2154 33.9793 33.6839 33.968 34.1934 33.9556C34.8008 33.9408 35.4665 33.9246 36.2697 33.9246C37.6921 33.9246 37.9656 34.0887 37.9656 34.499C37.9656 34.6976 37.9355 35.0865 37.8997 35.5506C37.8763 35.8534 37.8504 36.1883 37.8288 36.5231C37.8015 36.8787 37.6374 37.0155 37.2818 37.0155C37.0903 37.0155 36.9535 37.0155 36.8168 36.9061C35.8868 36.1402 35.0936 35.7846 32.3036 35.7846C31.5651 35.7846 31.1275 35.8667 30.9907 36.0308C30.8539 36.1949 30.7719 36.4411 30.7719 37.7266C30.7719 38.4651 30.7992 39.2584 30.8539 40.1337C30.8813 40.7354 31.018 41.173 31.2642 41.4739C31.6745 41.9663 32.6045 42.2124 34.0815 42.2124C36.0236 42.2124 37.7194 41.8569 39.1691 41.1457C39.47 41.0089 39.7161 40.9269 39.9076 40.9269C40.2085 40.9269 40.5914 41.2825 40.5914 41.5833C40.5914 41.9116 40.1538 42.4039 39.3059 43.1424C38.4579 43.881 37.8288 44.0998 36.5159 44.0998C36.3113 44.0998 35.9268 44.0768 35.4454 44.0481C34.6399 44 33.5633 43.9357 32.6045 43.9357C32.1038 43.9357 31.4449 43.9575 30.7155 43.9816C29.8114 44.0115 28.7989 44.0451 27.8452 44.0451Z" fill="white"/>
</svg>
