<svg width="119" height="145" viewBox="0 0 119 145" fill="none" xmlns="http://www.w3.org/2000/svg">
<path d="M96.7618 79.242C96.7618 103.696 76.5645 117.528 57.0588 117.528C38.2462 117.528 22.238 97.9673 22.238 72.7859C22.238 60.4926 27.9164 48.8953 36.1269 40.3446C44.3619 31.7684 54.9087 26.4941 64.3823 26.4941C73.5112 26.4941 81.5715 33.0015 87.4668 43.1891C93.3299 53.3211 96.7618 66.6578 96.7618 79.242Z" stroke="white" stroke-width="4"/>
<path d="M107.5 81.1277C107.5 112.654 81.4382 130.419 56.4222 130.419C31.926 130.419 11.4999 105.06 11.4999 72.9881C11.4999 57.1754 18.7988 42.311 29.2952 31.3797C39.81 20.4293 53.3568 13.6035 65.6554 13.6035C77.6954 13.6035 88.1306 22.1785 95.6438 35.1619C103.133 48.1035 107.5 65.0969 107.5 81.1277Z" stroke="white" stroke-width="3"/>
<path d="M62 42.3689L62 57.0107H79.8708C76.1072 48.5975 70.005 42.3604 62.5466 42.3604C62.3648 42.3604 62.1826 42.3632 62 42.3689Z" fill="white"/>
<path d="M38 59.9601C36.117 63.8177 35 68.0781 35 72.495C35 88.604 45.287 101.663 57.9766 101.663C70.6663 101.663 83.9999 92.6327 83.9999 76.5237C83.9999 70.978 82.9612 65.2016 81.0813 60.0107H38V59.9601Z" fill="white"/>
<path d="M41.4961 56.0111C45.7554 49.9556 51.9223 45.5016 58 43.9554L58 56.0111H41.4961Z" stroke="white" stroke-width="2" stroke-linejoin="round"/>
<path d="M118 82.9684C118 121.41 86.2034 143.021 55.8005 143.021C25.7442 143.021 1 111.989 1 73.1844C1 53.9306 9.88338 35.8724 22.6141 22.6141C35.3571 9.34319 51.8372 1 66.899 1C81.7885 1 94.5464 11.5987 103.641 27.3144C112.719 43.0022 118 63.5692 118 82.9684Z" stroke="white" stroke-width="2"/>
</svg>
