<svg width="11" height="16" viewBox="0 0 11 16" fill="none" xmlns="http://www.w3.org/2000/svg">
<path d="M9.82143 16C9.57018 15.9998 9.3256 15.9176 9.12362 15.7655C9.11232 15.7575 9.10201 15.749 9.09121 15.74L4.59987 11.9952H1.17857C0.865995 11.9952 0.56622 11.8687 0.345195 11.6437C0.12417 11.4187 0 11.1135 0 10.7952V5.20396C0 4.88572 0.12417 4.5805 0.345195 4.35547C0.56622 4.13044 0.865995 4.00401 1.17857 4.00401H4.59888L9.09022 0.259173C9.10103 0.250173 9.11134 0.241674 9.12263 0.233674C9.29822 0.102045 9.50623 0.0225897 9.72352 0.00414788C9.94082 -0.0142939 10.1589 0.0290005 10.3534 0.129215C10.548 0.22943 10.7115 0.382635 10.8256 0.571789C10.9398 0.760943 11.0001 0.978629 11 1.20063V14.8001C11 15.1183 10.8758 15.4235 10.6548 15.6485C10.4338 15.8736 10.134 16 9.82143 16Z" fill="white"/>
</svg>
