<svg width="18" height="16" viewBox="0 0 18 16" fill="none" xmlns="http://www.w3.org/2000/svg">
<path d="M9.375 9.53674e-07C9.13517 0.000169754 8.90171 0.0822639 8.70891 0.234227L8.67797 0.259698L4.39078 4.00532H1.125C0.826631 4.00532 0.540483 4.1316 0.329505 4.35638C0.118526 4.58117 0 4.88603 0 5.20392V10.7969C0 11.1148 0.118526 11.4196 0.329505 11.6444C0.540483 11.8692 0.826631 11.9955 1.125 11.9955H4.38984L8.67703 15.7411L8.70797 15.7666C8.87557 15.8981 9.07413 15.9774 9.28155 15.9959C9.48896 16.0143 9.69711 15.971 9.88284 15.8709C10.0686 15.7708 10.2246 15.6178 10.3335 15.4289C10.4425 15.2399 10.5001 15.0225 10.5 14.8007V1.1996C10.5 0.881711 10.3815 0.576842 10.1705 0.352061C9.95952 0.12728 9.67337 0.000998497 9.375 0.000998497V9.53674e-07ZM13.5 4.00482C13.3721 4.0049 13.2463 4.03983 13.1346 4.10629C13.023 4.17276 12.9291 4.26855 12.862 4.38456C12.7948 4.50058 12.7567 4.63295 12.7511 4.76911C12.7455 4.90527 12.7728 5.04068 12.8302 5.16247C13.275 6.10637 13.5005 7.06026 13.5005 8.00016C13.5005 8.96703 13.282 9.89395 12.8325 10.8333C12.7464 11.0216 12.733 11.2383 12.7954 11.4369C12.8577 11.6355 12.9907 11.8001 13.1658 11.8953C13.3409 11.9904 13.5441 12.0086 13.7316 11.9458C13.9191 11.883 14.0759 11.7443 14.1684 11.5595C14.7281 10.3894 15 9.22523 15 8.00016C15 6.81005 14.7187 5.61395 14.1703 4.44531C14.1079 4.31289 14.0122 4.20157 13.8938 4.12378C13.7754 4.046 13.6391 4.00481 13.5 4.00482Z" fill="white"/>
<path d="M15.7505 2C15.6188 1.99989 15.4894 2.03453 15.3753 2.10045C15.2613 2.16636 15.1665 2.26122 15.1006 2.37549C15.0347 2.48976 15 2.6194 15 2.75137C15 2.88335 15.0346 3.01301 15.1005 3.1273C15.9848 4.67499 16.5003 5.97138 16.5003 8.01226C16.5003 10.0846 15.9876 11.3716 15.1023 12.8949C15.011 13.0666 14.9896 13.2672 15.0429 13.4544C15.0961 13.6416 15.2197 13.8008 15.3877 13.8985C15.5556 13.9962 15.7549 14.0247 15.9434 13.9782C16.132 13.9316 16.2952 13.8135 16.3986 13.6488C17.387 11.9503 18 10.4134 18 8.01226C18 5.64681 17.3879 4.10241 16.401 2.37577C16.3351 2.26136 16.2402 2.16638 16.126 2.10041C16.0118 2.03444 15.8823 1.99981 15.7505 2Z" fill="white"/>
</svg>
