<svg width="15" height="24" viewBox="0 0 15 24" fill="none" xmlns="http://www.w3.org/2000/svg">
<path d="M10.625 23.375H13.8125C14.0943 23.375 14.3645 23.2631 14.5638 23.0638C14.7631 22.8645 14.875 22.5943 14.875 22.3125V1.0625C14.875 0.780707 14.7631 0.510457 14.5638 0.311199C14.3645 0.111942 14.0943 0 13.8125 0H10.625C10.3432 0 10.073 0.111942 9.8737 0.311199C9.67444 0.510457 9.5625 0.780707 9.5625 1.0625V22.3125C9.5625 22.5943 9.67444 22.8645 9.8737 23.0638C10.073 23.2631 10.3432 23.375 10.625 23.375ZM1.0625 23.375H4.25C4.53179 23.375 4.80204 23.2631 5.0013 23.0638C5.20056 22.8645 5.3125 22.5943 5.3125 22.3125V1.0625C5.3125 0.780707 5.20056 0.510457 5.0013 0.311199C4.80204 0.111942 4.53179 0 4.25 0H1.0625C0.780707 0 0.510456 0.111942 0.311198 0.311199C0.11194 0.510457 0 0.780707 0 1.0625V22.3125C0 22.5943 0.11194 22.8645 0.311198 23.0638C0.510456 23.2631 0.780707 23.375 1.0625 23.375Z" fill="white"/>
</svg>
