<svg width="119" height="183" viewBox="0 0 119 183" fill="none" xmlns="http://www.w3.org/2000/svg">
<path d="M82.9359 183H107.817C110.016 183 112.126 182.124 113.681 180.564C115.236 179.004 116.11 176.888 116.11 174.682C116.11 174.682 118.875 156.538 118.875 117.247C118.875 91.5685 116.11 8.31818 116.11 8.31818C116.11 6.11206 115.236 3.9963 113.681 2.43634C112.126 0.876379 110.016 0 107.817 0H82.9359C80.7363 0 78.6268 0.876379 77.0715 2.43634C75.5161 3.9963 74.6423 6.11206 74.6423 8.31818C74.6423 8.31818 75.2816 36.7185 75.2816 54.6623C75.2816 101.688 74.6423 174.682 74.6423 174.682C74.6423 176.888 75.5161 179.004 77.0715 180.564C78.6268 182.124 80.7363 183 82.9359 183ZM8.29366 183H33.1744C35.374 183 37.4835 182.124 39.0389 180.564C40.5942 179.004 41.468 176.888 41.468 174.682C41.468 174.682 43.0151 120.633 43.0389 86C43.0596 55.6629 41.468 8.31818 41.468 8.31818C41.468 6.11206 40.5942 3.9963 39.0389 2.43634C37.4835 0.876379 35.374 0 33.1744 0H8.29366C6.09406 0 3.98456 0.876379 2.42921 2.43634C0.873856 3.9963 6.86646e-05 6.11206 6.86646e-05 8.31818C6.86646e-05 8.31818 1.00007 54.3521 1.00007 102C1.00007 133.182 6.86646e-05 174.682 6.86646e-05 174.682C6.86646e-05 176.888 0.873856 179.004 2.42921 180.564C3.98456 182.124 6.09406 183 8.29366 183Z" fill="black"/>
</svg>
