<svg width="156" height="179" viewBox="0 0 156 179" fill="none" xmlns="http://www.w3.org/2000/svg">
<path d="M18.0205 179C15.0269 178.994 12.0864 178.212 9.48807 176.728C3.63726 173.421 0 167 0 160.03C0 160.03 1 139.807 1 111C1 73.4277 0 18.9709 0 18.9709C0 11.9812 3.63726 5.57999 9.48807 2.2724C12.1483 0.747189 15.1703 -0.0371522 18.2382 0.0013524C21.3062 0.039857 24.3075 0.899796 26.9284 2.49128C26.9284 2.49128 57.5303 16.5748 77.5 28.5C123.53 55.9878 147.772 74.6552 147.772 74.6552C150.291 76.2306 152.367 78.4184 153.806 81.0132C155.245 83.6081 156 86.5251 156 89.4907C156 92.4563 155.245 95.3733 153.806 97.9682C152.367 100.563 150.291 102.751 147.772 104.326C147.772 104.326 127.503 119.876 113.921 128.992C81.7806 150.566 26.9089 176.51 26.9089 176.51C24.2267 178.127 21.1547 178.988 18.0205 179Z" fill="black"/>
</svg>
