<svg width="96" height="71" viewBox="0 0 96 71" fill="none" xmlns="http://www.w3.org/2000/svg">
<path fill-rule="evenodd" clip-rule="evenodd" d="M85.8691 66.1772C94.2318 61.4082 95.869 51.9803 95.869 41.8919C95.869 40.8723 95.879 39.7773 95.8895 38.6256C95.9764 29.0804 96.0987 15.6438 90.875 8.99564C85.5366 2.20142 65.4761 1.25277 56.8397 1.25277C54.8155 1.25277 51.5603 1.05437 47.6408 0.815479C34.0139 -0.0150586 12.357 -1.33502 6.48112 3.49131C-0.26442 9.03201 -0.0824425 24.1335 0.0333345 33.7413C0.0471751 34.8899 0.0600697 35.9599 0.0600697 36.9257C0.0600697 46.2526 0.22951 58.067 6.48124 64.0369C12.3663 69.6567 39.4772 70.1486 48.257 70.1486C56.2753 70.1486 79.2224 69.9677 85.8691 66.1772ZM36.2933 44.8518C36.4417 45.1191 37.0653 45.2675 38.1639 45.2675C38.8468 45.2675 39.5298 45.2378 40.1533 45.1784C40.955 45.0894 41.1629 44.8221 41.1629 44.0798C41.1629 43.872 41.0441 43.6344 40.8066 43.3969C39.7376 42.3279 39.5892 40.7245 39.5892 39.0617C39.5892 37.7256 39.6485 36.8051 39.797 36.33C40.0939 35.3798 40.955 34.9047 42.3803 34.9047C43.954 34.9047 44.6666 35.4986 45.0229 37.1614C45.1714 37.8146 45.2308 38.5867 45.2308 39.5071C45.2308 41.4965 44.9635 42.803 44.4291 43.3672C44.1025 43.7235 43.9243 43.9907 43.9243 44.1986C43.9243 44.6737 43.954 44.9706 44.0431 45.0894C44.1321 45.1784 44.6072 45.2378 45.4683 45.2378H47.4874C48.3782 45.2378 48.8236 44.9409 48.8236 44.347C48.8236 44.1095 48.7642 43.9017 48.6751 43.6938C48.6455 43.6344 48.497 43.486 48.2298 43.2484C47.7844 42.8624 47.5171 42.3279 47.3984 41.645C47.339 41.3184 47.3093 40.6948 47.3093 39.7744C47.3093 39.3884 47.3093 38.7945 47.339 38.0522C47.3687 37.2803 47.3687 36.6865 47.3687 36.3005V36.3003C47.3687 35.2908 47.2202 34.5484 46.953 34.0733C46.4482 33.2123 45.5871 32.7669 44.4291 32.7669C43.8649 32.7669 42.8851 32.945 41.4895 33.2716C41.2519 33.331 40.9847 33.3607 40.6878 33.3607C40.183 33.3607 39.9455 33.0044 39.9455 32.2918V30.0054C39.9455 29.6184 39.9524 29.2245 39.9595 28.817C39.9672 28.3803 39.9752 27.928 39.9752 27.4519V25.7594C39.9752 25.2546 39.9455 24.9577 39.8861 24.8389C39.797 24.6013 39.5891 24.4529 39.2031 24.4529C38.5796 24.4529 37.4216 24.631 36.6496 24.8389C36.1448 24.9577 35.9072 25.2843 35.9072 25.7297C35.9072 25.9969 35.9963 26.2048 36.1448 26.4126L36.6793 27.0955C37.0059 27.5409 37.2434 28.016 37.3325 28.5208C37.4216 29.0256 37.57 29.9757 37.57 31.3416V39.2993C37.57 41.5856 37.2434 43.0109 36.5308 43.6047C36.2933 43.8126 36.1745 43.9907 36.1745 44.1986C36.1745 44.4955 36.2042 44.7034 36.2933 44.8518ZM23.7752 44.258C24.3394 45.1488 25.3786 45.5941 26.8929 45.5941C29.5356 45.5941 31.5547 44.6143 32.9503 42.6843C33.752 41.5262 34.1677 40.3385 34.1677 39.1211C34.1677 37.8146 33.7223 36.8051 32.8018 36.0925C32.0001 35.4689 30.5451 34.5484 28.4667 33.331C27.1008 32.5293 26.4178 31.6385 26.4178 30.5993C26.4178 29.2037 27.5165 28.1645 28.9714 28.1645C30.2482 28.1645 31.3172 28.7286 32.2376 29.8273C32.5643 30.2133 32.8018 30.4211 33.0096 30.4211C33.6035 30.4211 33.9004 30.1836 33.9004 29.7085C33.9004 29.5007 33.8707 29.2928 33.841 29.085L33.5738 27.6597C33.3957 26.7095 31.911 26.0266 30.0107 26.0266C28.7933 26.0266 27.754 26.2048 26.8929 26.5314C25.9725 26.8877 25.2004 27.5706 24.5175 28.5505C23.8643 29.5304 23.5376 30.5102 23.5376 31.5198C23.5376 32.7372 24.1612 33.8061 25.4083 34.786C26.2397 35.4095 27.0711 35.9737 27.8728 36.4488C30.5748 37.9928 31.3765 38.8539 31.3765 40.2494C31.3765 41.8825 29.9513 43.2187 28.1697 43.2187C27.0117 43.2187 26.0912 42.8327 25.4677 42.0607L24.369 40.6651L24.3635 40.6568C24.2988 40.5589 24.1141 40.2791 23.5376 40.2791C22.9735 40.2791 22.7062 40.5761 22.7062 41.1996C22.7062 42.1201 23.0626 43.1593 23.7752 44.258ZM54.5944 27.1252C54.5944 27.9269 54.0006 28.5505 53.1989 28.5505C52.4566 28.5505 51.8924 27.9566 51.8924 27.2143C51.8924 26.4126 52.4863 25.7594 53.2286 25.7594C54.1194 25.7594 54.5944 26.3829 54.5944 27.1252ZM51.5658 45.2081C51.1204 45.1784 50.9125 44.9409 50.9125 44.3767C50.9125 44.1689 50.9422 44.0501 51.0313 43.961L51.5361 43.2484C52.0409 42.5655 52.2784 41.259 52.2784 39.329C52.2784 37.3989 51.8627 36.0925 51.0016 35.3501C50.8532 35.2017 50.7641 35.0532 50.7641 34.8751C50.7641 34.489 50.8829 34.2218 51.0907 34.0437C51.2095 33.9249 51.5064 33.7764 51.9518 33.5983L53.4958 32.9747C53.674 32.9153 53.8224 32.9153 53.8818 32.9153C54.2975 32.945 54.5351 33.1826 54.5351 33.6873C54.5351 33.9687 54.4977 34.335 54.4482 34.8197L54.4482 34.8199C54.3514 35.7676 54.2084 37.1677 54.2084 39.2696C54.2084 41.4965 54.446 42.803 54.9508 43.2187L55.4852 43.6641C55.5743 43.7235 55.6634 43.9017 55.6634 44.1986C55.6634 44.7924 55.4852 45.03 55.2774 45.1191C55.1289 45.1784 54.8023 45.2378 53.5255 45.2378C53.0207 45.2378 52.3972 45.2378 51.5658 45.2081ZM57.7855 44.4064C57.7855 44.9409 58.0527 45.2081 58.5575 45.2081C58.619 45.2081 58.6958 45.2132 58.7857 45.2192C58.9129 45.2276 59.0665 45.2378 59.2404 45.2378H61.2002C62.1503 45.2378 62.6848 45.1784 62.8333 45.0597C62.9817 44.9112 63.0708 44.6737 63.0708 44.347C63.0708 44.0204 62.9223 43.7532 62.6254 43.575L61.9128 43.1296C61.5268 42.8624 61.2892 42.3576 61.2596 41.5856L61.1111 38.557C61.0814 38.1413 61.0814 37.8443 61.0814 37.6365C61.0814 36.8051 61.1111 36.3003 61.1408 36.0925C61.2596 35.5283 61.6456 35.2314 62.2097 35.2314H64.1991C65.0008 35.2314 65.3868 34.7563 65.3868 33.8952C65.3868 33.3904 65.179 33.1529 64.793 33.1529C64.5236 33.1529 64.2664 33.1651 63.9853 33.1784C63.6469 33.1945 63.274 33.2123 62.8036 33.2123C61.8534 33.2123 61.5268 33.1529 61.3783 33.0044C61.2299 32.7966 61.1705 32.3512 61.1705 31.9355C61.1705 30.629 61.5565 29.5304 62.3285 28.6693C62.952 27.9566 63.9616 27.4815 65.3868 27.244C66.4261 27.0658 66.9309 26.8283 66.9309 26.5314C66.9309 25.4624 66.1886 24.4529 65.3868 24.4529C64.7633 24.4529 63.9616 24.8092 62.9817 25.5515C62.0019 26.2641 61.2002 27.0955 60.5172 28.0457C59.5671 29.4116 59.0623 30.7478 58.9732 32.0839C58.9435 32.5293 58.8841 32.7966 58.7357 32.945L58.0527 33.5983C57.8152 33.8061 57.6964 34.0437 57.6964 34.3109C57.6964 34.4 57.8152 34.6078 58.0824 34.8751C58.5872 35.4392 58.9138 36.3003 59.0326 37.488C59.092 38.0522 59.1217 38.6757 59.1217 39.4774C59.1217 41.3481 58.8544 42.6546 58.2903 43.4266C57.9636 43.9017 57.7855 44.2283 57.7855 44.4064ZM68.1494 44.7331C67.8525 44.4064 67.6744 44.0204 67.5853 43.5157C67.4962 43.0109 67.4665 41.9419 67.4665 40.2494V36.9535C67.4665 36.0331 67.2883 35.4986 66.9617 35.3501L66.4273 35.1126C66.3382 35.0829 66.2788 34.9047 66.2788 34.6375C66.2788 34.4297 66.6648 33.8358 67.4071 32.8559C68.387 31.6088 69.0996 30.9853 69.545 30.9853C69.9013 30.9853 70.0795 31.2228 70.1092 31.6682C70.1389 32.4105 70.1982 32.8262 70.2576 32.9153C70.3764 33.0638 70.7624 33.1529 71.4156 33.1529C72.0095 33.1529 72.4252 33.1232 72.6627 33.0935C72.7815 33.0638 72.9003 33.0638 73.0488 33.0638C73.6129 33.0638 73.8801 33.3607 73.8801 33.9249C73.8801 34.7266 73.4348 35.1423 72.544 35.172L70.703 35.2611C70.3467 35.2908 70.1092 35.3204 69.9904 35.4095C69.6341 35.6471 69.4559 36.6269 69.4559 38.3194C69.4559 39.6556 69.5747 40.6651 69.8122 41.3778C70.1389 42.3576 71.1781 43.189 72.0392 43.2484C72.3064 43.2781 72.4549 43.3078 72.544 43.3375C72.6924 43.4266 72.7815 43.6641 72.7815 43.9907C72.7815 44.7331 71.4453 45.3566 69.8122 45.3566C69.0996 45.3566 68.5354 45.1488 68.1494 44.7331Z" fill="white"/>
</svg>
