<svg width="135" height="62" viewBox="0 0 135 62" fill="none" xmlns="http://www.w3.org/2000/svg">
<path fill-rule="evenodd" clip-rule="evenodd" d="M8.91127 3.54263C1.49189 7.77372 0.0393027 16.1382 0.0393034 25.0886C0.0393035 25.9932 0.0304602 26.9647 0.0211593 27.9865C-0.0559271 36.455 -0.164441 48.376 4.47002 54.2743C9.20629 60.3021 47.7063 61.1438 55.3685 61.1438C56.6401 61.1438 59.1748 61.207 62.5677 61.2916L62.568 61.2917H62.5682H62.5682H62.5683C80.6274 61.7422 122.999 62.7992 128.65 58.1577C134.634 53.242 134.473 39.844 134.37 31.3199V31.3198V31.3197C134.358 30.3007 134.347 29.3515 134.347 28.4946C134.347 20.2198 134.196 9.73807 128.65 4.44152C123.792 -0.197427 77.8714 -0.0323749 65.23 0.0130625C64.2845 0.016461 63.5251 0.0191903 62.9831 0.0191904C55.8693 0.019191 14.8082 0.179753 8.91127 3.54263ZM19.205 24.2909L19.2046 24.2906C18.5024 23.8515 18.289 22.9263 18.728 22.2239C19.167 21.5214 20.0925 21.3078 20.795 21.7469L20 23.0189C20.795 21.7469 20.7952 21.747 20.7955 21.7472L20.7962 21.7476L20.7979 21.7487L20.8031 21.752L20.8201 21.7627L20.8797 21.8007C20.9303 21.8332 21.0025 21.88 21.0932 21.9399C21.2744 22.0596 21.53 22.2322 21.8355 22.4486C22.4439 22.8795 23.2621 23.4927 24.087 24.2144C24.9045 24.9298 25.7703 25.7878 26.443 26.7128C27.0932 27.6068 27.6984 28.7465 27.6984 29.9922C27.6984 31.259 27.0759 32.3619 26.4012 33.2052C25.7099 34.0693 24.8254 34.834 23.9992 35.4536C23.1644 36.0798 22.3377 36.5958 21.7243 36.9536C21.4161 37.1334 21.1579 37.2755 20.9746 37.3736C20.8829 37.4228 20.8097 37.461 20.7581 37.4877L20.6972 37.519L20.6795 37.5279L20.674 37.5307L20.6721 37.5316L20.6714 37.532C20.6711 37.5321 20.6708 37.5323 20 36.1906L20.6708 37.5323C19.9298 37.9028 19.0288 37.6024 18.6583 36.8615C18.288 36.1208 18.5879 35.2203 19.3282 34.8495L19.3284 34.8494L19.3287 34.8492L19.3292 34.849L19.3294 34.8489L19.3383 34.8444L19.3811 34.8224C19.4202 34.8022 19.4802 34.7709 19.558 34.7292C19.7137 34.6458 19.9398 34.5215 20.2127 34.3623C20.7615 34.0421 21.4844 33.5897 22.1992 33.0536C22.9227 32.511 23.5877 31.9198 24.0586 31.3311C24.5462 30.7216 24.6984 30.2749 24.6984 29.9922C24.6984 29.6882 24.5289 29.1814 24.0168 28.4774C23.5274 27.8043 22.8436 27.1128 22.1115 26.4722C21.3867 25.838 20.6553 25.289 20.1015 24.8967C19.8258 24.7014 19.5972 24.5472 19.4394 24.4429C19.3606 24.3908 19.2996 24.3513 19.2595 24.3256L19.2154 24.2975L19.2058 24.2914L19.205 24.2909ZM28.2046 24.2906L28.205 24.2909L28.2058 24.2914L28.2154 24.2975L28.2595 24.3256C28.2996 24.3513 28.3606 24.3908 28.4394 24.4429C28.5972 24.5472 28.8258 24.7014 29.1015 24.8967C29.6553 25.289 30.3867 25.838 31.1115 26.4722C31.8436 27.1128 32.5274 27.8043 33.0168 28.4774C33.5289 29.1814 33.6984 29.6882 33.6984 29.9922C33.6984 30.2749 33.5462 30.7216 33.0586 31.3311C32.5877 31.9198 31.9227 32.511 31.1992 33.0536C30.4844 33.5897 29.7615 34.0421 29.2127 34.3623C28.9398 34.5215 28.7137 34.6458 28.558 34.7292C28.4802 34.7709 28.4202 34.8022 28.3811 34.8224L28.3383 34.8444L28.3294 34.8489L28.3292 34.849L28.3287 34.8492L28.3284 34.8494L28.3282 34.8495C27.5879 35.2203 27.288 36.1208 27.6583 36.8615C28.0288 37.6024 28.9298 37.9028 29.6708 37.5323L29 36.1906C29.6708 37.5323 29.6711 37.5321 29.6714 37.532L29.6721 37.5316L29.674 37.5307L29.6795 37.5279L29.6972 37.519L29.7581 37.4877C29.8097 37.461 29.8829 37.4228 29.9746 37.3736C30.1579 37.2755 30.4161 37.1334 30.7243 36.9536C31.3377 36.5958 32.1644 36.0798 32.9992 35.4536C33.8254 34.834 34.7099 34.0693 35.4012 33.2052C36.0759 32.3619 36.6984 31.259 36.6984 29.9922C36.6984 28.7465 36.0932 27.6068 35.443 26.7128C34.7703 25.7878 33.9045 24.9298 33.087 24.2144C32.2621 23.4927 31.4439 22.8795 30.8355 22.4486C30.53 22.2322 30.2744 22.0596 30.0932 21.9399C30.0025 21.88 29.9303 21.8332 29.8797 21.8007L29.8201 21.7627L29.8031 21.752L29.7979 21.7487L29.7962 21.7476L29.7955 21.7472C29.7952 21.747 29.795 21.7469 29 23.0189L29.795 21.7469C29.0925 21.3078 28.167 21.5214 27.728 22.2239C27.289 22.9263 27.5024 23.8515 28.2046 24.2906ZM53.0538 37.0193C52.0738 37.0193 52.0738 36.7113 52.0738 36.0953C52.0738 35.8433 52.2698 35.5913 52.6898 35.3393L53.2778 35.0033C53.7538 34.7513 54.0058 33.8273 54.0898 32.2313C54.2018 29.8233 54.2578 27.2473 54.2578 24.6153C54.2578 23.8313 54.1738 23.1033 54.0338 22.4313C53.9218 21.8993 53.5578 21.5073 52.9138 21.2833C52.4658 21.1153 52.2418 20.7793 52.2418 20.2753C52.2418 19.5753 52.6058 19.2393 53.3338 19.2393H56.2458C56.8788 19.2393 57.7835 19.1975 58.4874 19.1649C58.9356 19.1442 59.3024 19.1273 59.4658 19.1273C61.1458 19.1273 62.3778 19.3793 63.1898 19.8833C64.3378 20.6113 64.9258 21.8993 64.9258 23.7193C64.9258 24.6993 64.7298 25.6513 64.3098 26.5473C63.8058 27.6393 63.0778 28.4233 62.1538 28.8993C61.0058 29.5153 59.6618 29.8233 58.1218 29.8233C57.9408 29.8233 57.7597 29.8113 57.5648 29.7985C57.3378 29.7835 57.0921 29.7673 56.8058 29.7673C56.3298 29.7673 56.3018 30.0193 56.3018 30.7193C56.3018 30.8834 56.3067 31.0475 56.3124 31.2383V31.2384V31.2384V31.2385V31.2386V31.2386V31.2387C56.3204 31.5036 56.3298 31.82 56.3298 32.2593C56.3298 34.6113 56.6658 34.7793 57.7858 35.1713L57.792 35.1729C58.6264 35.3954 58.7378 35.4251 58.7378 36.1793C58.7378 36.9353 58.4298 37.0193 57.2258 37.0193H53.0538ZM56.4978 24.8113C56.4978 26.3513 56.5818 27.2473 56.7498 27.5553C57.0298 28.0873 57.8418 28.1153 58.6258 28.1153C60.6138 28.1153 62.2938 27.2193 62.2938 24.4193C62.2938 23.1873 61.9298 22.2353 61.1738 21.5913C60.5018 21.0033 59.5778 20.6953 58.3738 20.6953C57.5618 20.6953 56.9738 20.9193 56.6378 21.3953C56.5538 21.5353 56.4978 21.7313 56.4698 22.0393C56.4418 22.1513 56.4418 22.2913 56.4418 22.4593C56.4418 22.739 56.4524 23.0135 56.4643 23.3239C56.4799 23.7282 56.4978 24.1936 56.4978 24.8113ZM67.9334 37.1873C66.6174 37.1873 65.6934 36.4033 65.6934 35.2833C65.6934 34.6113 66.1974 34.1353 67.2054 33.8833C69.1374 33.3793 70.2854 32.9873 70.6494 32.7073C70.9294 32.4833 71.0694 31.8953 71.0694 30.9433C71.0694 28.2833 70.7054 27.6113 69.4454 27.6113C68.8014 27.6113 68.0454 27.8633 67.1774 28.3953C66.9534 28.5353 66.7854 28.5913 66.7014 28.5913C66.3654 28.5913 65.7774 27.9753 65.7774 27.6393C65.7774 27.4433 65.9174 27.2193 66.1694 26.9393C67.1494 25.8753 68.3814 25.3433 69.8654 25.3433C71.9654 25.3433 73.2814 26.5193 73.2814 28.4233C73.2814 28.8713 73.2534 29.4033 73.1974 30.0193C73.1938 30.073 73.1903 30.1249 73.1867 30.175L73.1819 30.2436L73.1754 30.3333C73.1564 30.5983 73.1414 30.8073 73.1414 30.9713C73.1414 32.5673 73.3934 33.6313 73.8694 34.1633L74.8774 35.2553C75.0174 35.4233 75.1014 35.5913 75.1014 35.7313C75.1014 35.9833 74.9334 36.2913 74.5974 36.6553C74.2614 37.0193 73.9814 37.1873 73.7294 37.1873C73.5894 37.1873 73.3934 37.1033 73.1414 36.9633L72.2734 36.4313C71.9934 36.2633 71.7414 36.1793 71.4894 36.1793C71.2374 36.1793 70.9014 36.2633 70.5094 36.4313C69.7626 36.7549 69.2813 36.9457 69.0854 37.0234L69.0254 37.0473C68.7174 37.1313 68.3534 37.1873 67.9334 37.1873ZM77.1981 34.4153C76.8341 34.4153 76.5821 35.0313 76.5821 35.7313C76.5821 36.4593 76.9461 36.9073 77.7021 37.1033C78.2341 37.2433 78.8221 37.2993 79.4661 37.2993C80.9501 37.2993 82.1821 36.9633 83.1341 36.2913C84.1141 35.5913 84.5901 34.7233 84.5901 33.6313C84.5901 32.9873 84.4221 32.4553 84.0861 32.0353C83.8061 31.6713 83.0221 31.1393 81.7061 30.4953L80.1101 29.6833C79.1861 29.2073 78.7101 28.7033 78.7101 28.1713C78.7101 27.3593 79.4381 26.6873 80.3621 26.6873C81.2861 26.6873 81.9021 27.0233 82.2101 27.7233L82.2314 27.7697C82.5184 28.3966 82.5306 28.4233 83.0501 28.4233C83.7501 28.4233 84.1141 28.0313 84.1141 27.2473C84.1141 26.7713 83.9181 26.2393 83.4981 25.8753C82.9941 25.3993 82.3221 25.2593 81.4541 25.2593C79.2981 25.2593 77.8421 25.8753 77.0861 27.0793C76.7221 27.6393 76.5541 28.2553 76.5541 28.8993C76.5541 30.0473 77.2541 30.9713 78.6821 31.6993L80.3341 32.5393C81.6781 33.2113 81.9861 33.5473 81.9861 34.3313C81.9861 35.1153 81.1461 35.7033 80.3341 35.7033C79.7461 35.7033 79.1021 35.5913 78.5421 35.2273C78.4072 35.1361 78.2875 35.0549 78.1809 34.9826C77.4692 34.5 77.3442 34.4153 77.1981 34.4153ZM92.8959 36.2913C91.9438 36.9633 90.7118 37.2993 89.2278 37.2993C88.5838 37.2993 87.9958 37.2433 87.4638 37.1033C86.7078 36.9073 86.3438 36.4593 86.3438 35.7313C86.3438 35.0313 86.5958 34.4153 86.9598 34.4153C87.106 34.4153 87.2309 34.5 87.9426 34.9826L88.1311 35.1104L88.3038 35.2273C88.8638 35.5913 89.5078 35.7033 90.0958 35.7033C90.9078 35.7033 91.7478 35.1153 91.7478 34.3313C91.7478 33.5473 91.4398 33.2113 90.0958 32.5393L88.4438 31.6993C87.0158 30.9713 86.3158 30.0473 86.3158 28.8993C86.3158 28.2553 86.4838 27.6393 86.8478 27.0793C87.6039 25.8753 89.0598 25.2593 91.2159 25.2593C92.0838 25.2593 92.7558 25.3993 93.2598 25.8753C93.6798 26.2393 93.8758 26.7713 93.8758 27.2473C93.8758 28.0313 93.5118 28.4233 92.8119 28.4233C92.2924 28.4233 92.2801 28.3966 91.9931 27.7697L91.9718 27.7233C91.6638 27.0233 91.0478 26.6873 90.1238 26.6873C89.1998 26.6873 88.4718 27.3593 88.4718 28.1713C88.4718 28.7033 88.9478 29.2073 89.8718 29.6833L91.4678 30.4953C92.7838 31.1393 93.5678 31.6713 93.8478 32.0353C94.1838 32.4553 94.3518 32.9873 94.3518 33.6313C94.3518 34.7233 93.8758 35.5913 92.8959 36.2913ZM96.1336 31.9233C96.1336 35.1433 97.9256 37.2713 100.642 37.2713C101.902 37.2713 103.106 36.8513 104.226 36.0113C104.534 35.7873 104.674 35.5913 104.674 35.4513C104.674 35.3953 104.646 35.2833 104.59 35.1433C104.45 34.7793 104.282 34.6113 104.058 34.6113C103.974 34.6113 103.778 34.6673 103.526 34.7513C102.91 34.9753 102.294 35.0873 101.678 35.0873C99.7456 35.0873 98.4016 33.5193 98.4016 31.2793C98.4016 29.6273 98.9616 29.1793 101.09 29.1793C103.078 29.1793 104.254 29.0113 104.562 28.7033C104.73 28.5353 104.814 28.2553 104.814 27.8633C104.814 26.3793 103.498 25.3153 101.678 25.3153C100.138 25.3153 98.8496 25.9593 97.7576 27.2473C96.6656 28.5353 96.1336 30.1033 96.1336 31.9233ZM109.076 37.1313C107.928 37.1313 107.2 37.1033 106.92 36.9913C106.668 36.9073 106.528 36.5993 106.528 36.1793C106.528 35.8765 106.722 35.6513 106.932 35.4068L106.932 35.4066C106.975 35.3572 107.018 35.307 107.06 35.2553C107.592 34.6673 107.844 33.4913 107.844 31.7273C107.844 29.7393 107.592 28.3673 107.06 27.5553C106.808 27.1353 106.668 26.8553 106.668 26.7153C106.668 26.3513 106.892 26.0153 107.368 25.6793C107.76 25.3993 108.124 25.2593 108.46 25.2593C108.628 25.2593 108.88 25.3993 109.188 25.6513C109.664 26.0433 110.084 26.2393 110.392 26.2393C110.728 26.2393 111.12 26.1273 111.54 25.8753C112.128 25.5393 112.604 25.3713 112.94 25.3713C113.584 25.3713 113.892 25.8193 113.892 26.7433C113.892 27.1913 113.836 27.4993 113.724 27.6673C113.584 27.8913 113.276 28.0033 112.856 28.0313C112.59 28.0439 112.354 28.0452 112.142 28.0462C111.414 28.05 110.959 28.0523 110.504 28.5073C110.028 28.9833 109.776 29.9913 109.776 31.5313C109.776 33.5473 110.168 34.7793 110.924 35.2553L111.512 35.6193C111.652 35.7033 111.708 35.8993 111.708 36.2073C111.708 36.5433 111.68 36.7393 111.596 36.8233C111.4 37.0193 110.56 37.1313 109.076 37.1313Z" fill="white"/>
</svg>
