<svg width="147" height="62" viewBox="0 0 147 62" fill="none" xmlns="http://www.w3.org/2000/svg">
<path fill-rule="evenodd" clip-rule="evenodd" d="M137.284 58.4991C144.656 54.295 146.099 45.9841 146.099 37.0909C146.099 36.1921 146.108 35.2268 146.117 34.2116C146.194 25.7972 146.302 13.9525 141.697 8.09199C136.991 2.10272 88.5129 1.26646 80.8997 1.26646C79.4278 1.26646 76.1719 1.14745 71.7977 0.98757C52.4336 0.279789 11.1539 -1.22903 5.71328 3.23979C-0.233093 8.12406 -0.072675 21.4364 0.0293851 29.9059C0.0415859 30.9184 0.0529528 31.8617 0.0529528 32.7131C0.0529528 40.935 0.202319 51.3496 5.71338 56.6123C10.9012 61.5663 65.5942 61.9999 73.3339 61.9999C80.4022 61.9999 131.425 61.8404 137.284 58.4991ZM42.0022 40.1936C41.1908 40.1936 40.7982 39.9581 40.7982 39.5131C40.7982 38.8325 40.8767 38.754 41.5311 38.3614C41.9237 38.1258 42.2116 37.8379 42.3687 37.4976C42.5519 37.0788 42.6828 36.503 42.7351 35.7962C42.7875 35.0895 42.8137 33.4928 42.8137 31.0586C42.8137 28.0746 42.5257 26.2162 41.9499 25.4048C41.7652 25.1462 41.6391 25.0147 41.5533 24.9251C41.396 24.761 41.374 24.7381 41.374 24.3316C41.374 23.6876 41.7614 23.6774 43.3012 23.6368C43.639 23.6279 44.0322 23.6175 44.4889 23.5987C45.405 23.5725 46.3735 23.5464 47.2634 23.5464C47.9849 23.5464 48.6475 23.5562 49.161 23.5638C49.4857 23.5686 49.7507 23.5725 49.9333 23.5725C51.2682 23.5725 51.687 23.8081 51.8964 24.1484C52.0796 24.4363 52.3675 25.5618 52.3675 26.1115C52.3675 26.7659 52.1319 27.08 51.6346 27.08C51.2682 27.08 51.1373 26.9491 50.7709 26.5826C50.195 26.0068 49.5668 25.4571 48.5983 25.2216C48.1795 25.1169 47.6822 25.0907 47.1064 25.0907C46.1379 25.0907 45.562 25.1954 45.3003 25.3263C44.8553 25.5618 44.7506 26.19 44.7506 27.237C44.7506 27.9665 44.7607 28.435 44.7683 28.7916V28.7918V28.7919V28.7919V28.792C44.773 29.011 44.7768 29.1879 44.7768 29.3572C44.7768 29.933 44.8291 30.2733 44.96 30.4042C45.0647 30.4827 45.2741 30.5612 46.6876 30.5612C47.141 30.5612 47.589 30.5504 48.0763 30.5385L48.0771 30.5385L48.0772 30.5385C48.6584 30.5244 49.2955 30.5089 50.0641 30.5089C51.4252 30.5089 51.687 30.6659 51.687 31.0586C51.687 31.2486 51.6582 31.6207 51.6239 32.0648L51.6239 32.0653L51.6237 32.0669L51.6237 32.0673L51.6236 32.0686C51.6013 32.3574 51.5767 32.6765 51.5561 32.9955C51.5299 33.3358 51.3729 33.4667 51.0326 33.4667C50.8494 33.4667 50.7185 33.4667 50.5876 33.362C49.6977 32.6291 48.9386 32.2888 46.2688 32.2888C45.562 32.2888 45.1432 32.3673 45.0124 32.5244C44.8815 32.6814 44.803 32.917 44.803 34.1472C44.803 34.8539 44.8291 35.613 44.8815 36.4506C44.9077 37.0265 45.0385 37.4453 45.2741 37.7332C45.6667 38.2043 46.5567 38.4399 47.9701 38.4399C49.8286 38.4399 51.4514 38.0996 52.8387 37.4191C53.1266 37.2882 53.3622 37.2097 53.5454 37.2097C53.8333 37.2097 54.1998 37.55 54.1998 37.8379C54.1998 38.152 53.781 38.6231 52.9695 39.3299C52.1581 40.0366 51.5561 40.246 50.2997 40.246C50.1039 40.246 49.7359 40.224 49.2753 40.1965H49.2752C48.5044 40.1505 47.4741 40.0889 46.5567 40.0889C46.0781 40.0889 45.4486 40.1098 44.7516 40.1328L44.7508 40.1328L44.7492 40.1329L44.749 40.1329C43.8838 40.1616 42.915 40.1936 42.0022 40.1936ZM56.6798 40.2722C55.9731 40.0889 55.6328 39.6701 55.6328 38.9896C55.6328 38.3352 55.8684 37.7594 56.2087 37.7594C56.3453 37.7594 56.4621 37.8386 57.1274 38.2898C57.2271 38.3573 57.339 38.4332 57.4651 38.5184C57.9886 38.8587 58.5906 38.9634 59.1403 38.9634C59.8994 38.9634 60.6846 38.4137 60.6846 37.6808C60.6846 36.9479 60.3967 36.6338 59.1403 36.0056L57.596 35.2204C56.261 34.5398 55.6067 33.6761 55.6067 32.6029C55.6067 32.0009 55.7637 31.425 56.104 30.9015C56.8107 29.776 58.1718 29.2001 60.1873 29.2001C60.9987 29.2001 61.6269 29.331 62.0981 29.776C62.4907 30.1163 62.6739 30.6136 62.6739 31.0586C62.6739 31.7915 62.3336 32.1579 61.6793 32.1579C61.1936 32.1579 61.1822 32.133 60.9139 31.5469L60.894 31.5035C60.6061 30.8492 60.0302 30.5351 59.1665 30.5351C58.3027 30.5351 57.6221 31.1633 57.6221 31.9223C57.6221 32.4197 58.0671 32.8908 58.9309 33.3358L60.4229 34.0949C61.6531 34.6969 62.386 35.1942 62.6477 35.5345C62.9618 35.9271 63.1189 36.4244 63.1189 37.0265C63.1189 38.0473 62.6739 38.8587 61.7578 39.5131C60.8678 40.1413 59.7161 40.4554 58.3289 40.4554C57.7268 40.4554 57.1772 40.403 56.6798 40.2722ZM66.1456 41.4762C66.1456 43.0467 66.0409 44.0675 65.8315 44.6957C65.7268 45.036 65.5697 45.2977 65.3865 45.5071L65.3566 45.5408C64.9639 45.9823 64.8892 46.0664 64.8892 46.4494C64.8892 46.8421 65.0201 47.0253 65.2556 47.1038C65.4912 47.2085 66.1456 47.2609 67.1664 47.2609C68.6584 47.2609 69.4698 47.1823 69.6007 47.0253C69.653 46.9468 69.7054 46.8159 69.7054 46.4233C69.7054 46.0272 69.6005 45.9607 69.3 45.7705L69.2999 45.7704C69.2032 45.7092 69.0864 45.6352 68.9463 45.5333C68.3704 45.1145 68.1872 44.1199 68.1872 42.3138C68.1872 41.3715 68.2657 40.8218 68.449 40.5863C68.6322 40.3507 69.051 40.2198 69.7577 40.1936C71.9302 40.1413 73.5531 39.3822 74.5739 37.8641C75.333 36.7385 75.6994 35.5345 75.6994 34.2519C75.6994 31.1894 73.8934 29.2001 71.0926 29.2001C70.3597 29.2001 69.496 29.3572 68.4751 29.6975C68.0563 29.8283 67.7161 29.9069 67.4281 29.9069C67.2188 29.9069 66.9308 29.8022 66.5644 29.5666C66.1979 29.331 65.9362 29.2263 65.8053 29.2263C65.4912 29.2263 65.2033 29.4095 64.9677 29.8022C64.7321 30.1948 64.6274 30.4042 64.6274 30.4827C64.6274 30.5874 64.7059 30.7445 64.8892 30.9539C65.4912 31.6606 65.8577 32.5505 66.0147 33.6761C66.0932 34.1734 66.1194 35.168 66.1194 36.66C66.1194 39.225 66.1326 40.2722 66.1403 40.8793C66.1434 41.1271 66.1456 41.3017 66.1456 41.4762ZM67.7946 35.0633C67.7946 33.4143 68.0563 32.315 68.5798 31.7653C69.0248 31.2941 69.6268 31.0586 70.3336 31.0586C71.3544 31.0586 72.1135 31.3988 72.637 32.1056C73.1081 32.7076 73.3437 33.5452 73.3437 34.5922C73.3437 37.0265 72.1396 38.5446 70.1765 38.5446C68.4751 38.5446 67.7946 37.55 67.7946 35.0633ZM79.3208 40.3507C78.0906 40.3507 77.2268 39.6178 77.2268 38.5708C77.2268 37.9426 77.6979 37.4976 78.6402 37.262C80.4463 36.7909 81.5195 36.4244 81.8597 36.1627C82.1215 35.9533 82.2524 35.4036 82.2524 34.5137C82.2524 32.027 81.9121 31.3988 80.7342 31.3988C80.1322 31.3988 79.4255 31.6344 78.6141 32.1317C78.4047 32.2626 78.2476 32.315 78.1691 32.315C77.855 32.315 77.3053 31.7391 77.3053 31.425C77.3053 31.2418 77.4362 31.0324 77.6718 30.7706C78.5879 29.776 79.7396 29.2787 81.1269 29.2787C83.09 29.2787 84.3202 30.378 84.3202 32.1579C84.3202 32.5767 84.294 33.074 84.2417 33.6499C84.2346 33.7552 84.2276 33.8529 84.2211 33.9436V33.9438V33.9439C84.2033 34.1914 84.1893 34.3866 84.1893 34.5398C84.1893 36.0318 84.4249 37.0265 84.8699 37.5238L85.8122 38.5446C85.943 38.7017 86.0216 38.8587 86.0216 38.9896C86.0216 39.2252 85.8645 39.5131 85.5504 39.8534C85.2363 40.1936 84.9746 40.3507 84.739 40.3507C84.6081 40.3507 84.4249 40.2722 84.1893 40.1413L83.3779 39.644C83.1161 39.4869 82.8806 39.4084 82.645 39.4084C82.4094 39.4084 82.0953 39.4869 81.7289 39.644C81.0309 39.9464 80.581 40.1248 80.3978 40.1975L80.3416 40.2198C80.0537 40.2983 79.7134 40.3507 79.3208 40.3507ZM87.3534 35.1942C87.3534 38.4399 89.0286 40.403 91.8293 40.403C93.1119 40.403 94.2374 40.0104 95.2583 39.2513C95.52 39.0681 95.6509 38.8849 95.6509 38.754C95.6509 38.7017 95.6247 38.597 95.5462 38.4399C95.4153 38.0996 95.2583 37.9426 95.075 37.9426C94.9442 37.9426 94.6301 38.0211 94.1327 38.1782C93.6354 38.3352 93.2428 38.4137 92.9025 38.4137C90.73 38.4137 89.5259 37.0788 89.5259 34.7492C89.5259 32.4197 90.4944 30.98 92.0911 30.98C92.6669 30.98 93.1119 31.1109 93.4522 31.3988L94.0804 31.9223C94.2636 32.0532 94.473 32.1317 94.7348 32.1317C95.4938 32.1317 95.8865 31.7129 95.8865 30.8753C95.8865 29.8022 94.8656 29.2525 92.8502 29.2525C91.2011 29.2525 89.84 29.8283 88.8192 31.0062C87.8507 32.1056 87.3534 33.4928 87.3534 35.1942ZM101.206 40.4292C98.6671 40.4292 96.9919 38.4399 96.9919 35.4298C96.9919 33.7284 97.4893 32.2626 98.5101 31.0586C99.5309 29.8545 100.735 29.2525 102.175 29.2525C103.876 29.2525 105.106 30.2471 105.106 31.6344C105.106 32.0009 105.028 32.2626 104.871 32.4197C104.583 32.7076 103.483 32.8646 101.625 32.8646C99.6356 32.8646 99.1121 33.2834 99.1121 34.8278C99.1121 36.9218 100.369 38.3876 102.175 38.3876C102.75 38.3876 103.326 38.2829 103.902 38.0735C104.138 37.9949 104.321 37.9426 104.399 37.9426C104.609 37.9426 104.766 38.0996 104.897 38.4399C104.949 38.5708 104.975 38.6755 104.975 38.7278C104.975 38.8587 104.844 39.0419 104.557 39.2513C103.51 40.0366 102.384 40.4292 101.206 40.4292Z" fill="white"/>
</svg>
