{
  "asset": {
    "generator": "Khronos glTF Blender I/O v1.4.40",
    "version": "2.0"
  },
  "scene": 0,
  "scenes": [
    {
      "name": "Scene",
      "nodes": [
        0,
        1
      ]
    }
  ],
  "nodes": [
    {
      "mesh": 0,
      "name": "Plane"
    },
    {
      "mesh": 1,
      "name": "Cube"
    }
  ],
  "animations": [
    {
      "channels": [
        {
          "sampler": 0,
          "target": {
            "node": 0,
            "path": "translation"
          }
        },
        {
          "sampler": 1,
          "target": {
            "node": 0,
            "path": "rotation"
          }
        },
        {
          "sampler": 2,
          "target": {
            "node": 0,
            "path": "scale"
          }
        }
      ],
      "name": "Action",
      "samplers": [
        {
          "input": 10,
          "interpolation": "LINEAR",
          "output": 11
        },
        {
          "input": 10,
          "interpolation": "LINEAR",
          "output": 12
        },
        {
          "input": 10,
          "interpolation": "LINEAR",
          "output": 13
        }
      ]
    },
    {
      "channels": [
        {
          "sampler": 0,
          "target": {
            "node": 0,
            "path": "weights"
          }
        }
      ],
      "name": "KeyAction",
      "samplers": [
        {
          "input": 10,
          "interpolation": "LINEAR",
          "output": 14
        }
      ]
    }
  ],
  "materials": [
    {
      "doubleSided": true,
      "name": "Material",
      "pbrMetallicRoughness": {
        "baseColorFactor": [
          0.22696590423583984,
          0.34191444516181946,
          0.5972021818161011,
          1
        ],
        "metallicFactor": 0,
        "roughnessFactor": 0.4000000059604645
      }
    },
    {
      "doubleSided": true,
      "name": "Material.001",
      "pbrMetallicRoughness": {
        "metallicFactor": 0,
        "roughnessFactor": 0.5
      }
    }
  ],
  "meshes": [
    {
      "extras": {
        "targetNames": [
          "DOWN"
        ]
      },
      "name": "Plane",
      "primitives": [
        {
          "attributes": {
            "POSITION": 0,
            "NORMAL": 1,
            "TEXCOORD_0": 2
          },
          "indices": 3,
          "material": 0,
          "targets": [
            {
              "POSITION": 4,
              "NORMAL": 5
            }
          ]
        }
      ],
      "weights": [
        0
      ]
    },
    {
      "name": "Cube.001",
      "primitives": [
        {
          "attributes": {
            "POSITION": 6,
            "NORMAL": 7,
            "TEXCOORD_0": 8
          },
          "indices": 9,
          "material": 1
        }
      ]
    }
  ],
  "accessors": [
    {
      "bufferView": 0,
      "componentType": 5126,
      "count": 544,
      "max": [
        1.160557746887207,
        1.321441411972046,
        1.161458969116211
      ],
      "min": [
        -1.1658474206924438,
        0.00026977062225341797,
        -1.88334321975708
      ],
      "type": "VEC3"
    },
    {
      "bufferView": 1,
      "componentType": 5126,
      "count": 544,
      "type": "VEC3"
    },
    {
      "bufferView": 2,
      "componentType": 5126,
      "count": 544,
      "type": "VEC2"
    },
    {
      "bufferView": 3,
      "componentType": 5123,
      "count": 2400,
      "type": "SCALAR"
    },
    {
      "bufferView": 4,
      "componentType": 5126,
      "count": 544,
      "max": [
        1.1920928955078125e-7,
        -0.0006974935531616211,
        2.384185791015625e-7
      ],
      "min": [
        -7.152557373046875e-7,
        -2.6406049728393555,
        -2.384185791015625e-7
      ],
      "type": "VEC3"
    },
    {
      "bufferView": 5,
      "componentType": 5126,
      "count": 544,
      "type": "VEC3"
    },
    {
      "bufferView": 6,
      "componentType": 5126,
      "count": 63,
      "max": [
        0.06898143887519836,
        0.07599335163831711,
        0.20594623684883118
      ],
      "min": [
        -0.06898143142461777,
        -0.07599335163831711,
        -0.5671434998512268
      ],
      "type": "VEC3"
    },
    {
      "bufferView": 7,
      "componentType": 5126,
      "count": 63,
      "type": "VEC3"
    },
    {
      "bufferView": 8,
      "componentType": 5126,
      "count": 63,
      "type": "VEC2"
    },
    {
      "bufferView": 9,
      "componentType": 5123,
      "count": 240,
      "type": "SCALAR"
    },
    {
      "bufferView": 10,
      "componentType": 5126,
      "count": 16,
      "max": [
        0.6666666666666666
      ],
      "min": [
        0.041666666666666664
      ],
      "type": "SCALAR"
    },
    {
      "bufferView": 11,
      "componentType": 5126,
      "count": 16,
      "type": "VEC3"
    },
    {
      "bufferView": 12,
      "componentType": 5126,
      "count": 16,
      "type": "VEC4"
    },
    {
      "bufferView": 13,
      "componentType": 5126,
      "count": 16,
      "type": "VEC3"
    },
    {
      "bufferView": 14,
      "componentType": 5126,
      "count": 16,
      "type": "SCALAR"
    }
  ],
  "bufferViews": [
    {
      "buffer": 0,
      "byteLength": 6528,
      "byteOffset": 0
    },
    {
      "buffer": 0,
      "byteLength": 6528,
      "byteOffset": 6528
    },
    {
      "buffer": 0,
      "byteLength": 4352,
      "byteOffset": 13056
    },
    {
      "buffer": 0,
      "byteLength": 4800,
      "byteOffset": 17408
    },
    {
      "buffer": 0,
      "byteLength": 6528,
      "byteOffset": 22208
    },
    {
      "buffer": 0,
      "byteLength": 6528,
      "byteOffset": 28736
    },
    {
      "buffer": 0,
      "byteLength": 756,
      "byteOffset": 35264
    },
    {
      "buffer": 0,
      "byteLength": 756,
      "byteOffset": 36020
    },
    {
      "buffer": 0,
      "byteLength": 504,
      "byteOffset": 36776
    },
    {
      "buffer": 0,
      "byteLength": 480,
      "byteOffset": 37280
    },
    {
      "buffer": 0,
      "byteLength": 64,
      "byteOffset": 37760
    },
    {
      "buffer": 0,
      "byteLength": 192,
      "byteOffset": 37824
    },
    {
      "buffer": 0,
      "byteLength": 256,
      "byteOffset": 38016
    },
    {
      "buffer": 0,
      "byteLength": 192,
      "byteOffset": 38272
    },
    {
      "buffer": 0,
      "byteLength": 64,
      "byteOffset": 38464
    }
  ],
  "buffers": [
    {
      "byteLength": 38528,
      "uri": "data:application/octet-stream;base64,"
    }
  ]
}