{
    "asset" : {
        "generator" : "Khronos glTF Blender I/O v1.5.17",
        "version" : "2.0"
    },
    "scene" : 4,
    "scenes" : [
        {
            "name" : "BUSH"
        },
        {
            "name" : "FALAISE"
        },
        {
            "name" : "FULL OBJECTS"
        },
        {
            "name" : "MAIN"
        },
        {
            "name" : "OISEAUX",
            "nodes" : [
                7
            ]
        }
    ],
    "nodes" : [
        {
            "name" : "Bone.001",
            "rotation" : [
                -2.5594175667720265e-08,
                2.396500420331904e-08,
                0.005184414330869913,
                0.9999865889549255
            ],
            "translation" : [
                4.65661453841193e-10,
                0.8539753556251526,
                2.0122792321330962e-16
            ]
        },
        {
            "name" : "Bone.003",
            "rotation" : [
                0.4593139886856079,
                -0.04735442250967026,
                0.20694389939308167,
                0.8625326156616211
            ],
            "scale" : [
                1.0000001192092896,
                1.0000001192092896,
                1.0000001192092896
            ],
            "translation" : [
                4.760045513307887e-08,
                1.3682481050491333,
                -6.984700595680238e-10
            ]
        },
        {
            "children" : [
                1
            ],
            "name" : "Bone.002",
            "rotation" : [
                -0.17055504024028778,
                0.1484391689300537,
                -0.7311283946037292,
                0.6436832547187805
            ],
            "scale" : [
                0.9999998807907104,
                0.9999999403953552,
                0.9999998807907104
            ],
            "translation" : [
                4.65661453841193e-10,
                0.8539753556251526,
                2.0122792321330962e-16
            ]
        },
        {
            "name" : "Bone.005",
            "rotation" : [
                0.4592646360397339,
                0.04782990366220474,
                -0.23042145371437073,
                0.8565595746040344
            ],
            "scale" : [
                1,
                0.9999999403953552,
                1
            ],
            "translation" : [
                6.42423572116968e-08,
                1.3834013938903809,
                6.984987033220591e-10
            ]
        },
        {
            "children" : [
                3
            ],
            "name" : "Bone.004",
            "rotation" : [
                -0.1658417284488678,
                -0.14218297600746155,
                0.7444558143615723,
                0.6309248208999634
            ],
            "scale" : [
                0.9999999403953552,
                0.9999999403953552,
                1
            ],
            "translation" : [
                -9.307889570209227e-09,
                0.8539754152297974,
                1.973705182308546e-14
            ]
        },
        {
            "children" : [
                0,
                2,
                4
            ],
            "name" : "Bone",
            "rotation" : [
                -1.072025845871849e-08,
                -1.1901281737891622e-08,
                -0.0028501832857728004,
                0.9999959468841553
            ],
            "scale" : [
                0.9999999403953552,
                0.9999999403953552,
                0.9999998807907104
            ]
        },
        {
            "mesh" : 0,
            "name" : "MOUETTE",
            "skin" : 0
        },
        {
            "children" : [
                6,
                5
            ],
            "name" : "Armature",
            "rotation" : [
                0.7071068286895752,
                0,
                0,
                0.7071068286895752
            ],
            "scale" : [
                0.5641918778419495,
                0.5641918778419495,
                0.5641918778419495
            ],
            "translation" : [
                0,
                0,
                -0.4399828016757965
            ]
        }
    ],
    "animations" : [
        {
            "channels" : [
                {
                    "sampler" : 0,
                    "target" : {
                        "node" : 5,
                        "path" : "translation"
                    }
                },
                {
                    "sampler" : 1,
                    "target" : {
                        "node" : 5,
                        "path" : "rotation"
                    }
                },
                {
                    "sampler" : 2,
                    "target" : {
                        "node" : 5,
                        "path" : "scale"
                    }
                },
                {
                    "sampler" : 3,
                    "target" : {
                        "node" : 0,
                        "path" : "translation"
                    }
                },
                {
                    "sampler" : 4,
                    "target" : {
                        "node" : 0,
                        "path" : "rotation"
                    }
                },
                {
                    "sampler" : 5,
                    "target" : {
                        "node" : 0,
                        "path" : "scale"
                    }
                },
                {
                    "sampler" : 6,
                    "target" : {
                        "node" : 2,
                        "path" : "translation"
                    }
                },
                {
                    "sampler" : 7,
                    "target" : {
                        "node" : 2,
                        "path" : "rotation"
                    }
                },
                {
                    "sampler" : 8,
                    "target" : {
                        "node" : 2,
                        "path" : "scale"
                    }
                },
                {
                    "sampler" : 9,
                    "target" : {
                        "node" : 1,
                        "path" : "translation"
                    }
                },
                {
                    "sampler" : 10,
                    "target" : {
                        "node" : 1,
                        "path" : "rotation"
                    }
                },
                {
                    "sampler" : 11,
                    "target" : {
                        "node" : 1,
                        "path" : "scale"
                    }
                },
                {
                    "sampler" : 12,
                    "target" : {
                        "node" : 4,
                        "path" : "translation"
                    }
                },
                {
                    "sampler" : 13,
                    "target" : {
                        "node" : 4,
                        "path" : "rotation"
                    }
                },
                {
                    "sampler" : 14,
                    "target" : {
                        "node" : 4,
                        "path" : "scale"
                    }
                },
                {
                    "sampler" : 15,
                    "target" : {
                        "node" : 3,
                        "path" : "translation"
                    }
                },
                {
                    "sampler" : 16,
                    "target" : {
                        "node" : 3,
                        "path" : "rotation"
                    }
                },
                {
                    "sampler" : 17,
                    "target" : {
                        "node" : 3,
                        "path" : "scale"
                    }
                }
            ],
            "name" : "MOVEMENTS",
            "samplers" : [
                {
                    "input" : 7,
                    "interpolation" : "LINEAR",
                    "output" : 8
                },
                {
                    "input" : 7,
                    "interpolation" : "LINEAR",
                    "output" : 9
                },
                {
                    "input" : 7,
                    "interpolation" : "LINEAR",
                    "output" : 10
                },
                {
                    "input" : 7,
                    "interpolation" : "LINEAR",
                    "output" : 11
                },
                {
                    "input" : 7,
                    "interpolation" : "LINEAR",
                    "output" : 12
                },
                {
                    "input" : 7,
                    "interpolation" : "LINEAR",
                    "output" : 13
                },
                {
                    "input" : 7,
                    "interpolation" : "LINEAR",
                    "output" : 14
                },
                {
                    "input" : 7,
                    "interpolation" : "LINEAR",
                    "output" : 15
                },
                {
                    "input" : 7,
                    "interpolation" : "LINEAR",
                    "output" : 16
                },
                {
                    "input" : 7,
                    "interpolation" : "LINEAR",
                    "output" : 17
                },
                {
                    "input" : 7,
                    "interpolation" : "LINEAR",
                    "output" : 18
                },
                {
                    "input" : 7,
                    "interpolation" : "LINEAR",
                    "output" : 19
                },
                {
                    "input" : 7,
                    "interpolation" : "LINEAR",
                    "output" : 20
                },
                {
                    "input" : 7,
                    "interpolation" : "LINEAR",
                    "output" : 21
                },
                {
                    "input" : 7,
                    "interpolation" : "LINEAR",
                    "output" : 22
                },
                {
                    "input" : 7,
                    "interpolation" : "LINEAR",
                    "output" : 23
                },
                {
                    "input" : 7,
                    "interpolation" : "LINEAR",
                    "output" : 24
                },
                {
                    "input" : 7,
                    "interpolation" : "LINEAR",
                    "output" : 25
                }
            ]
        }
    ],
    "materials" : [
        {
            "doubleSided" : true,
            "name" : "Material",
            "pbrMetallicRoughness" : {
                "baseColorFactor" : [
                    0.7707177400588989,
                    0.7707177400588989,
                    0.7707177400588989,
                    1
                ],
                "metallicFactor" : 0
            }
        }
    ],
    "meshes" : [
        {
            "name" : "Plane.023",
            "primitives" : [
                {
                    "attributes" : {
                        "POSITION" : 0,
                        "NORMAL" : 1,
                        "TEXCOORD_0" : 2,
                        "JOINTS_0" : 3,
                        "WEIGHTS_0" : 4
                    },
                    "indices" : 5,
                    "material" : 0
                }
            ]
        }
    ],
    "skins" : [
        {
            "inverseBindMatrices" : 6,
            "joints" : [
                5,
                0,
                2,
                1,
                4,
                3
            ],
            "name" : "Armature"
        }
    ],
    "accessors" : [
        {
            "bufferView" : 0,
            "componentType" : 5126,
            "count" : 56,
            "max" : [
                1.491641879081726,
                0,
                0.6786739826202393
            ],
            "min" : [
                -1.491641879081726,
                0,
                -0.5023994445800781
            ],
            "type" : "VEC3"
        },
        {
            "bufferView" : 1,
            "componentType" : 5126,
            "count" : 56,
            "type" : "VEC3"
        },
        {
            "bufferView" : 2,
            "componentType" : 5126,
            "count" : 56,
            "type" : "VEC2"
        },
        {
            "bufferView" : 3,
            "componentType" : 5121,
            "count" : 56,
            "type" : "VEC4"
        },
        {
            "bufferView" : 4,
            "componentType" : 5126,
            "count" : 56,
            "type" : "VEC4"
        },
        {
            "bufferView" : 5,
            "componentType" : 5123,
            "count" : 162,
            "type" : "SCALAR"
        },
        {
            "bufferView" : 6,
            "componentType" : 5126,
            "count" : 6,
            "type" : "MAT4"
        },
        {
            "bufferView" : 7,
            "componentType" : 5126,
            "count" : 53,
            "max" : [
                2.2083333333333335
            ],
            "min" : [
                0.041666666666666664
            ],
            "type" : "SCALAR"
        },
        {
            "bufferView" : 8,
            "componentType" : 5126,
            "count" : 53,
            "type" : "VEC3"
        },
        {
            "bufferView" : 9,
            "componentType" : 5126,
            "count" : 53,
            "type" : "VEC4"
        },
        {
            "bufferView" : 10,
            "componentType" : 5126,
            "count" : 53,
            "type" : "VEC3"
        },
        {
            "bufferView" : 11,
            "componentType" : 5126,
            "count" : 53,
            "type" : "VEC3"
        },
        {
            "bufferView" : 12,
            "componentType" : 5126,
            "count" : 53,
            "type" : "VEC4"
        },
        {
            "bufferView" : 13,
            "componentType" : 5126,
            "count" : 53,
            "type" : "VEC3"
        },
        {
            "bufferView" : 14,
            "componentType" : 5126,
            "count" : 53,
            "type" : "VEC3"
        },
        {
            "bufferView" : 15,
            "componentType" : 5126,
            "count" : 53,
            "type" : "VEC4"
        },
        {
            "bufferView" : 16,
            "componentType" : 5126,
            "count" : 53,
            "type" : "VEC3"
        },
        {
            "bufferView" : 17,
            "componentType" : 5126,
            "count" : 53,
            "type" : "VEC3"
        },
        {
            "bufferView" : 18,
            "componentType" : 5126,
            "count" : 53,
            "type" : "VEC4"
        },
        {
            "bufferView" : 19,
            "componentType" : 5126,
            "count" : 53,
            "type" : "VEC3"
        },
        {
            "bufferView" : 20,
            "componentType" : 5126,
            "count" : 53,
            "type" : "VEC3"
        },
        {
            "bufferView" : 21,
            "componentType" : 5126,
            "count" : 53,
            "type" : "VEC4"
        },
        {
            "bufferView" : 22,
            "componentType" : 5126,
            "count" : 53,
            "type" : "VEC3"
        },
        {
            "bufferView" : 23,
            "componentType" : 5126,
            "count" : 53,
            "type" : "VEC3"
        },
        {
            "bufferView" : 24,
            "componentType" : 5126,
            "count" : 53,
            "type" : "VEC4"
        },
        {
            "bufferView" : 25,
            "componentType" : 5126,
            "count" : 53,
            "type" : "VEC3"
        }
    ],
    "bufferViews" : [
        {
            "buffer" : 0,
            "byteLength" : 672,
            "byteOffset" : 0
        },
        {
            "buffer" : 0,
            "byteLength" : 672,
            "byteOffset" : 672
        },
        {
            "buffer" : 0,
            "byteLength" : 448,
            "byteOffset" : 1344
        },
        {
            "buffer" : 0,
            "byteLength" : 224,
            "byteOffset" : 1792
        },
        {
            "buffer" : 0,
            "byteLength" : 896,
            "byteOffset" : 2016
        },
        {
            "buffer" : 0,
            "byteLength" : 324,
            "byteOffset" : 2912
        },
        {
            "buffer" : 0,
            "byteLength" : 384,
            "byteOffset" : 3236
        },
        {
            "buffer" : 0,
            "byteLength" : 212,
            "byteOffset" : 3620
        },
        {
            "buffer" : 0,
            "byteLength" : 636,
            "byteOffset" : 3832
        },
        {
            "buffer" : 0,
            "byteLength" : 848,
            "byteOffset" : 4468
        },
        {
            "buffer" : 0,
            "byteLength" : 636,
            "byteOffset" : 5316
        },
        {
            "buffer" : 0,
            "byteLength" : 636,
            "byteOffset" : 5952
        },
        {
            "buffer" : 0,
            "byteLength" : 848,
            "byteOffset" : 6588
        },
        {
            "buffer" : 0,
            "byteLength" : 636,
            "byteOffset" : 7436
        },
        {
            "buffer" : 0,
            "byteLength" : 636,
            "byteOffset" : 8072
        },
        {
            "buffer" : 0,
            "byteLength" : 848,
            "byteOffset" : 8708
        },
        {
            "buffer" : 0,
            "byteLength" : 636,
            "byteOffset" : 9556
        },
        {
            "buffer" : 0,
            "byteLength" : 636,
            "byteOffset" : 10192
        },
        {
            "buffer" : 0,
            "byteLength" : 848,
            "byteOffset" : 10828
        },
        {
            "buffer" : 0,
            "byteLength" : 636,
            "byteOffset" : 11676
        },
        {
            "buffer" : 0,
            "byteLength" : 636,
            "byteOffset" : 12312
        },
        {
            "buffer" : 0,
            "byteLength" : 848,
            "byteOffset" : 12948
        },
        {
            "buffer" : 0,
            "byteLength" : 636,
            "byteOffset" : 13796
        },
        {
            "buffer" : 0,
            "byteLength" : 636,
            "byteOffset" : 14432
        },
        {
            "buffer" : 0,
            "byteLength" : 848,
            "byteOffset" : 15068
        },
        {
            "buffer" : 0,
            "byteLength" : 636,
            "byteOffset" : 15916
        }
    ],
    "buffers" : [
        {
            "byteLength" : 16552,
            "uri" : "data:application/octet-stream;base64,"
        }
    ]
}
